<svg xmlns="http://www.w3.org/2000/svg" width="131" height="29"><g fill="none" data-name="Canvas"><g data-name="Logo"><g data-name="Branding/Logo/Icon"><path fill="#1FAAE2" d="M9.805 0v6.676l9.882 7.228c.09.068.164.158.214.261a.764.764 0 0 1 0 .67.726.726 0 0 1-.214.261l-9.882 7.227V29l18.834-13.775a.876.876 0 0 0 .265-.317.921.921 0 0 0 0-.82.877.877 0 0 0-.265-.316L9.805 0Z" data-name="Vector"/><path fill="#1FAAE2" d="M4.274 4.878v5.127L9.64 13.93a.714.714 0 0 1 .218.259.752.752 0 0 1 0 .67.714.714 0 0 1-.218.259l-5.366 3.925v5.126l12.204-8.919a.872.872 0 0 0 .266-.316.917.917 0 0 0 0-.819.872.872 0 0 0-.266-.316L4.274 4.88Z" data-name="Vector"/><path fill="#1FAAE2" d="M0 9.055v3.23l2.162 1.579c.09.068.163.157.214.26a.763.763 0 0 1-.214.932L0 16.637v3.227l6.4-4.682a.868.868 0 0 0 .266-.314.914.914 0 0 0 0-.816.868.868 0 0 0-.265-.315L0 9.055Z" data-name="Vector"/></g><g data-name="Branding/Logo/Wordmark"><path fill="#1FAAE2" d="M48.58 18.371a3.03 3.03 0 0 1-.34 1.486 3.17 3.17 0 0 1-1.027 1.158 4.735 4.735 0 0 1-1.479.68 6.633 6.633 0 0 1-1.79.234H37V8.122h7.693c.472-.006.938.101 1.356.31.398.201.751.476 1.038.808.286.337.509.718.657 1.129a3.63 3.63 0 0 1-.294 3.168 3.161 3.161 0 0 1-1.538 1.313 3.71 3.71 0 0 1 1.953 1.255c.476.603.714 1.359.715 2.266Zm-8.786-7.946v3.473h3.724c.224.005.447-.034.656-.114.208-.08.397-.2.555-.353.17-.17.302-.371.387-.592.086-.22.123-.456.11-.69a1.735 1.735 0 0 0-.455-1.265 1.483 1.483 0 0 0-.51-.35 1.535 1.535 0 0 0-.615-.117l-3.852.008Zm5.971 7.447a1.98 1.98 0 0 0-.486-1.302c-.143-.165-.32-.3-.519-.399a1.537 1.537 0 0 0-.667-.146h-4.3v3.637h4.153c.246.002.49-.044.717-.136.218-.088.414-.217.578-.38.164-.166.294-.361.384-.574.096-.224.144-.465.14-.708v.008ZM50.374 21.913V8.122h2.794v13.791h-2.794ZM66.911 10.475h-4.574v11.453h-2.793V10.475h-4.597V8.122h11.964v2.353ZM80.445 21.928V12.79l-3.706 6.813H75.22l-3.704-6.813v9.14h-2.793V8.121h2.996l4.25 7.856 4.292-7.856h2.974v13.806h-2.79ZM92.198 22a6.408 6.408 0 0 1-2.768-.592 6.868 6.868 0 0 1-2.155-1.575 7.016 7.016 0 0 1-1.384-2.247A7.162 7.162 0 0 1 85.405 15a7.12 7.12 0 0 1 1.955-4.88 6.928 6.928 0 0 1 2.176-1.545A6.492 6.492 0 0 1 92.267 8c.96-.01 1.909.2 2.768.612.818.395 1.547.94 2.145 1.605a7.195 7.195 0 0 1 1.384 2.255c.32.82.484 1.69.486 2.567a6.856 6.856 0 0 1-.519 2.635 7.162 7.162 0 0 1-1.427 2.217 6.884 6.884 0 0 1-2.166 1.535 6.501 6.501 0 0 1-2.74.574Zm-3.987-7c-.002.586.09 1.17.273 1.73a4.63 4.63 0 0 0 .8 1.48c.34.426.77.778 1.264 1.031a3.634 3.634 0 0 0 1.7.39 3.552 3.552 0 0 0 1.711-.4 3.87 3.87 0 0 0 1.244-1.06c.343-.45.603-.953.77-1.487a5.537 5.537 0 0 0 .263-1.683c0-.588-.095-1.171-.284-1.73a4.77 4.77 0 0 0-.8-1.477 3.855 3.855 0 0 0-1.255-1.022 3.602 3.602 0 0 0-1.673-.372 3.551 3.551 0 0 0-1.71.399 4.02 4.02 0 0 0-1.255 1.05c-.35.444-.614.945-.78 1.479a5.518 5.518 0 0 0-.268 1.671ZM112.758 21.913V8.122h2.794v13.791h-2.794ZM121.34 13.083v8.849h-2.793V8.122h2.166l7.494 9.062V8.142H131v13.791h-2.274l-7.385-8.85ZM108.518 8.122l-3.273 8.885-3.305-8.885H99.06l5.396 13.192c.065.16.179.297.327.394a.917.917 0 0 0 1.004 0 .863.863 0 0 0 .328-.394l5.288-13.186-2.886-.006Z" data-name="Vector"/></g></g></g></svg>
