<?xml version="1.0" encoding="UTF-8" standalone="no"?><svg xmlns="http://www.w3.org/2000/svg" xml:space="preserve" width="1000" height="311.16595" version="1.1"><metadata/><defs><clipPath id="g" clipPathUnits="userSpaceOnUse"><path d="m 430.311,715.04 163.689,0 0,76.96 -163.689,0 0,-76.96 z"/></clipPath><clipPath id="a" clipPathUnits="userSpaceOnUse"><path d="m 100.767,751.969 558.72,0 0,-790.1997 -558.72,0 0,790.1997 z"/></clipPath><clipPath id="b" clipPathUnits="userSpaceOnUse"><path d="m 17.6095,663.003 337.6795,0 0,-76.32 -337.6795,0 0,76.32 z"/></clipPath><clipPath id="c" clipPathUnits="userSpaceOnUse"><path d="m 17.3241,482.196 442.0799,0 0,-76.32 -442.0799,0 0,76.32 z"/></clipPath><clipPath id="d" clipPathUnits="userSpaceOnUse"><path d="m 172.438,319.436 431.28,0 0,-76.32 -431.28,0 0,76.32 z"/></clipPath><clipPath id="e" clipPathUnits="userSpaceOnUse"><path d="m 172.438,131.755 431.28,0 0,-120.9602 -431.28,0 0,120.9602 z"/></clipPath><clipPath id="f" clipPathUnits="userSpaceOnUse"><path d="m 17.141,296.076 153.36,0 0,-285.4801 -153.36,0 0,285.4801 z"/></clipPath></defs><g clip-path="url(#g)" style="fill:#6c3c97;fill-opacity:1" transform="matrix(1.25,0,0,-1.25,-543.42196,1204.671) matrix(6.0462822,0,0,6.0462822,-2261.8973,-3724.7442)"><g style="fill:#6c3c97;fill-opacity:1"><path d="m 0,0 c 0,3.755 -3.021,6.779 -6.715,6.779 l -3.33,0 0,-13.498 3.33,0 C -3.021,-6.719 0,-3.693 0,0 m 15.148,-26.909 -12.224,0 -9.705,13.468 -3.264,0 0,-13.439 -10.773,0 0,40.374 15.433,0 c 8.897,0 16.159,-6.05 16.159,-13.494 0,-4.54 -2.784,-8.595 -7.021,-11.076 l 11.395,-15.833" style="fill:#6c3c97;fill-opacity:1;fill-rule:nonzero;stroke:none" transform="translate(466.883,761.8719)"/></g><g style="fill:#6c3c97;fill-opacity:1"><path d="m 0,0 c -2.845,0 -5.265,-3.867 -5.265,-8.654 0,-4.787 2.42,-8.659 5.265,-8.659 2.911,0 5.327,3.872 5.327,8.659 C 5.327,-3.867 2.911,0 0,0 m 16.582,-8.654 c 0,-9.145 -7.437,-16.468 -16.582,-16.468 -9.142,0 -16.524,7.323 -16.524,16.468 0,9.138 7.382,16.465 16.524,16.465 9.145,0 16.582,-7.327 16.582,-16.465" style="fill:#6c3c97;fill-opacity:1;fill-rule:nonzero;stroke:none" transform="translate(494.1805,759.449)"/></g><g style="fill:#6c3c97;fill-opacity:1"><path d="m 0,0 -12.41,-12.408 0,12.449 -10.771,0 0,-31.639 10.771,0 0,12.834 12.956,-12.834 13.557,0 -16.464,16.466 13.637,13.632 0,-18.776 c 0,-6.234 3.749,-11.987 13.19,-11.987 4.482,0 8.595,2.542 10.594,4.842 l 4.843,-4.177 2.299,0 0,31.598 -10.771,0 0,-16.462 0,-3.996 c -1.213,-2.117 -2.903,-3.448 -5.515,-3.448 -2.65,0 -3.866,1.571 -3.866,6.596 l 0,1.326 L 22.05,0 0,0 z" style="fill:#6c3c97;fill-opacity:1;fill-rule:nonzero;stroke:none" transform="translate(536.0434,766.5903)"/></g></g></svg>
