<svg xmlns="http://www.w3.org/2000/svg" width="400" viewBox="0 0 1730 268.4" id="icon-logo">
  <path fill="#0000eb" d="M281 56.2h81.9v206.2H281V56.2zM281 0h81.9v39.4H281V0zm270.2 0h81.9v39.4h-81.9V0zm0 56.2h81.9v206.2h-81.9V56.2zm244.4 0h81.9v206.2h-76v-30.3c-20.4 28.3-40.5 36.2-74.4 36.2-44.9 0-74-27.5-74-86.6V56.2H735v111.4c0 28.3 9.9 37.4 29.5 37.4 23.6 0 31.1-17.7 31.1-49.6V56.2zm305 140.1c0 42.9-35.4 72-111 72-47.2 0-99.2-14.5-103.5-70.1H964c0 8.3 3.1 14.6 8.7 18.9 5.1 3.9 12.2 6.3 20.1 6.3 12.6 0 26-3.9 26-18.5 0-33.1-126.4-6.7-126.4-86.6 0-52.7 54.7-68.1 97.6-68.1 44.9 0 97.6 10.2 102.3 64.9h-74.4c-.8-6.7-3.5-11.4-7.9-15-4.3-3.5-10.2-5.1-16.5-5.1-14.2 0-23.2 4.3-23.2 14.6.1 28.9 130.3 9.6 130.3 86.7zM257 144.4c6.2 9.5 9.9 21.1 9.9 35.4-.4 52.8-44.1 88.6-138.1 88.6C70 268.4 5.4 250.5 0 182.2v-3.4h88.1l-19.5 57.5 64.3-44.7 64.3 44.7-16.7-49.4c-2.6-5.1-9.3-7.9-9.3-7.9C136.1 159.5 8 170.1 8 83.9 8 19 76.1.1 129.5.1 185.4.1 251 12.7 256.9 80v2.6h-99.2l-24.6-72.4-24.6 72.4H29l44.4 30.6c13-5.2 26.9-7.5 40.8-9 14.9-1.6 29.9-1.9 44.9-.9 12.6.8 25.1 2.6 37.4 5.5 11.1 2.6 22.4 5.5 32.5 11 11.3 6.2 21.2 14.1 28 24.6zm266.1-94.1c5.1 0 10.6 1.2 10.6 1.2v81.9s-4.3-2.4-16.9-2.4c-33.5 0-50.4 15.7-50.4 60.2v71.3h-81.9V56.2h74.4v41.7h.8c11.5-32.2 31.4-47.6 63.4-47.6zm1069-44.4H1730v256.5h-87.2v-72.8c0-35.3.7-68 2-98-2.6 12.3-5.5 23.9-8.7 34.9l-35.7 135.8h-72.9L1491 126.6l-3.8-14.4c-1.2-4.6-2.2-8.6-3-12.3-.8-3.6-1.3-5.6-1.6-6.1 1.3 29.3 2 61.3 2 95.8v72.8h-87.1V5.9h137.9l22.2 97.3 6.7 30.6c2.9-15.4 5-25.6 6.3-30.6l21.5-97.3zm-304 119.7 101.1 136.9h-105l-15.5-23.4-30.2-46.5c-8.2 12.3-19.2 27.7-32.9 46.5l-17 23.4h-99.5L1192.9 131 1100.2 6H1204l15.5 22.3 22.6 33.1c.5-1 4.1-6.2 10.7-15.9l11.9-17.3 15.5-22.3h96.7l-88.8 119.7z"></path>
</svg>
