<?xml version="1.0" encoding="utf-8"?>
<!-- Generator: Adobe Illustrator 23.0.1, SVG Export Plug-In . SVG Version: 6.00 Build 0)  -->
<svg version="1.1" id="Layer_1" xmlns="http://www.w3.org/2000/svg" xmlns:xlink="http://www.w3.org/1999/xlink" width="300" x="0px" y="0px"
	 viewBox="0 0 1023.4 553.5" style="enable-background:new 0 0 1023.4 553.5;" xml:space="preserve">
<style type="text/css">
	.st0{fill:#14ABE0;}
	.st1{fill:#FAA71B;}
</style>
<path class="st0" d="M257.1,90.3v350.1c0,2.4,1.9,4.3,4.3,4.3h59.1c2.4,0,4.3-1.9,4.3-4.3V90.3c0-2.4-1.9-4.3-4.3-4.3h-59.1
	C259,86,257.1,87.9,257.1,90.3z M72.2,257.9c0-11.4,16-19.6,40.5-19.6c27.9,0,54.2,9.9,70.5,23.9c3,2.6,7.7,1.8,9.7-1.7l19.9-39.7
	c1.5-2.7,0.8-6.1-1.6-7.9c-24.6-18.5-57.8-31.8-99-31.8c-67.6,0-105.5,37.8-105.5,81c0,100.7,152.9,65.9,152.9,110.2
	c0,12.1-13.8,22.4-43.1,22.4c-29.1,0-63.5-11.5-83.5-27.4c-3-2.4-7.4-1.6-9.4,1.7L0.9,406.7c-1.6,2.6-1.1,5.9,1.2,7.9
	c27.3,22.9,68.5,36.5,111.1,36.5c71.4,0,111.3-35.2,111.3-82.5C224.6,267,72.2,298.4,72.2,257.9z M371.7,185.3v254.9
	c0,2.4,1.9,4.3,4.3,4.3h59.1c2.4,0,4.3-1.9,4.3-4.3V185.3c0-2.4-1.9-4.3-4.3-4.3H376C373.7,181.1,371.7,183,371.7,185.3z
	 M659.7,440.2c0,2.4,1.9,4.3,4.3,4.3h59.1c2.4,0,4.3-1.9,4.3-4.3V273.4c0-50.1-36.6-92.8-93.1-92.8c-42.1,0-70.5,21.2-80.7,40v-35.3
	c0-2.4-1.9-4.3-4.3-4.3h-59.1c-2.4,0-4.3,1.9-4.3,4.3v254.9c0,2.4,1.9,4.3,4.3,4.3h59.1c2.4,0,4.3-1.9,4.3-4.3V300.3
	c0-31.2,22.9-59.3,55.3-59.3c27.6,0,50.7,14.3,50.7,50V440.2z M775.3,512c-1.1,1.8-0.8,4.1,0.8,5.5c31.2,26.4,65.1,36,108.1,36
	c63.4,0,139.1-28.5,139.1-126.6V191.3c0-2.4-1.9-4.3-4.3-4.3h-59.7c-2.4,0-4.3,1.9-4.3,4.3v28.8c-16.7-27.2-45.5-39.4-76.4-39.4
	c-65,0-116.6,55.1-116.6,139.3c0,70,49.1,131.1,116.6,131.1c31.9,0,56.1-14.9,76.4-40.5v18c0,50.6-38.4,69.6-70.9,69.6
	c-30.6,0-56.5-8-76.8-28.1c-1.9-1.9-5.2-1.5-6.6,0.8L775.3,512z M897,382.7c-38.4,0-65-25.9-65-70.1c0-44.2,26.7-71.7,65-71.7
	c35.1,0,58.1,33.2,58.1,71.7S932.2,382.7,897,382.7z M994.7,553.5h3.5v-13.3h4.7v-3.1h-13v3.1h4.8V553.5z M1017.8,547l2-5.2v11.7
	h3.5v-16.3h-4.9l-4,10.2l-4-10.2h-4.9v16.3h3.5v-11.7l4.6,11.7h1.5L1017.8,547"/>
<g>
	<path class="st1" d="M365.3,79.3c0.2-22.7,18.8-40.8,41.5-40.6c22.7,0.2,40.8,18.8,40.6,41.5c-0.2,22.1-18.8,40.8-41.5,40.6
		C383.2,120.6,365.1,101.5,365.3,79.3z"/>
	<path class="st1" d="M492.6,123.5c20.5-4.8,35.9-22.5,36.2-43.9l0-0.3c0.1-21.4-14.9-39.5-35.3-44.7c-2-0.5-4.4,0.7-3.1,3.2
		c8.4,14.8,10.4,30.5,10.3,41.4c-0.1,10.8-2.5,26.5-11.2,41.1C488.2,122.7,490.5,124,492.6,123.5z"/>
	<path class="st1" d="M569.8,140.9c28.7-6.6,50.1-31.4,50.6-61.3l0-0.4c0.1-29.9-20.8-55.1-49.3-62.4c-2.9-0.7-6.2,1-4.3,4.4
		c11.7,20.6,14.6,42.6,14.4,57.7c-0.2,15.1-3.6,37.1-15.7,57.4C563.7,139.8,566.9,141.6,569.8,140.9z"/>
	<path class="st1" d="M652.3,5.8c14.8,26.1,18.5,54,18.3,73.1c-0.2,19.2-4.5,46.9-19.9,72.7c-2.4,4.2,1.7,7.7,5.3,6.9
		c36.3-8.4,63.5-41,64.1-78.8l0-0.5c0.2-37.8-26.3-69.8-62.4-79C654.2-0.7,650,1.5,652.3,5.8z"/>
</g>
</svg>
