<svg height="211.891385" viewBox="0 0 13.050662 5.722924" width="471.939904" fill="#F54E00" xmlns="http://www.w3.org/2000/svg"><path d="m156.08093 175.43079h-.86059v3.84551c0 .0685.055.12405.12294.12405h.73765c.0679 0 .12295-.0555.12295-.12405v-3.72146c0-.0685-.055-.12405-.12295-.12405m-3.31945 2.97717c-.54319 0-.98354-.44431-.98354-.99239s.44035-.99239.98354-.99239c.5432 0 .98354.44431.98354.99239s-.44034.99239-.98354.99239m0-2.97717c-.28876 0-.56289.0628-.80991.17559l-.00003-.00003c-.0159.007-.0332.011-.0507.011-.0679 0-.12295-.0555-.12295-.12405v-1.42708c0-.0685-.055-.12405-.12294-.12405h-.8606v3.47336c0 1.09616.88067 1.98478 1.96708 1.98478 1.08642 0 1.96709-.88862 1.96709-1.98478s-.88067-1.98478-1.96709-1.98478m-6.45632 3.59304.00012.00009-.37018-.64738-.00022.00013c-.0313-.0547-.0984-.0769-.1558-.0516-.12067.0533-.25397.0829-.39415.0829-.54319 0-.98354-.44431-.98354-.99239v-.86834c0-.0685.055-.12405.12294-.12405h1.22942c.0679 0 .12295-.0555.12295-.12405v-.74426c0-.0685-.055-.12408-.12295-.12408h-1.22942c-.0679 0-.12294-.0555-.12294-.12405v-1.24051c0-.0685-.0551-.12402-.12295-.12402h-.86059v3.47336c0 1.09616.8807 1.98478 1.96708 1.98478.3116 0 .60626-.0731.8681-.20322.0609-.0303.086-.10464.0559-.16611-.001-.002-.002-.005-.004-.007m3.87453-3.59304h-.8606v1.98478c0 .54808-.44035.99239-.98354.99239s-.98354-.44431-.98354-.99239v-1.86073c0-.0685-.055-.12405-.12294-.12405h-.8606v1.98478c0 1.09616.8807 1.98478 1.96708 1.98478s1.96708-.88862 1.96708-1.98478v-1.86073c0-.0685-.055-.12405-.12294-.12405m5.53242-1.48858c-.27162 0-.49177.22214-.49177.49619 0 .27406.22015.4962.49177.4962.27161 0 .49177-.22214.49177-.4962 0-.27405-.22016-.49619-.49177-.49619" transform="translate(-143.28551 -173.80988)"/></svg>
