<svg width="300" height="64" viewBox="0 0 130 32" fill="none" xmlns="http://www.w3.org/2000/svg">
<g clip-path="url(#clip0_1:45)">
<path fill-rule="evenodd" clip-rule="evenodd" d="M32.07 17.7799L37.3809 11.4048H33.0409L29.3263 16.1425V6.89243H26.1382V25.0049H29.3263V19.4185L33.8928 25.0049H38.2309L32.07 17.7799ZM56.4841 22.1212C56.8904 22.1212 57.2415 21.975 57.5193 21.7868L59.5603 24.4946C58.5858 25.0699 57.3918 25.3504 56.5309 25.3504C54.2224 25.3504 51.9277 23.5368 51.9283 20.5V14.6325H50.2907V11.4045H51.9283V8.01588H55.0244V11.4045H57.672V14.6325H55.0244V20.4526C55.0244 21.7364 55.9785 22.1212 56.4841 22.1212ZM3.23796 11.2417H5.35111C6.80537 11.2417 7.9945 12.4206 7.9945 13.8733C7.9945 15.3297 6.80537 16.508 5.35111 16.508H3.23796V11.2417ZM3.23796 25.0048V19.736H5.52846L9.49325 25.0048H13.547L8.7556 18.647C10.2489 17.5784 11.2295 15.841 11.2295 13.8733C11.2295 10.6411 8.59328 8.01606 5.35111 8.01606H0V25.0048H3.23796ZM74.9277 17.0159V25.005H71.8316V11.4049H74.9277V11.9108C74.9277 11.9108 76.0363 11.0705 77.5591 11.0705C80.8481 11.0705 83.0971 13.7375 83.0971 17.0159V25.005H80.001V17.0159C80.001 15.517 78.9676 14.2518 77.4647 14.2518C75.9605 14.2518 74.9277 15.517 74.9277 17.0159ZM18.3597 22.0639C16.6229 22.0639 15.3514 20.3588 15.3514 18.2054C15.3514 16.0532 16.6229 14.3481 18.3597 14.3481C20.0984 14.3481 21.3242 16.0532 21.3242 18.2054C21.3242 20.3588 20.0984 22.0639 18.3597 22.0639ZM21.2767 11.4048V12.0083C20.343 11.4156 19.5062 11.071 18.3597 11.071C14.8374 11.071 12.1616 14.2726 12.1616 18.2054C12.1616 22.1389 14.8374 25.3387 18.3597 25.3387C19.5062 25.3387 20.343 24.9959 21.2767 24.4019V25.0049H24.3728V11.4048H21.2767ZM46.0783 11.405V19.3941C46.0783 20.893 45.0454 22.1582 43.5413 22.1582C42.0383 22.1582 41.0049 20.893 41.0049 19.3941V11.405H37.9088V19.3941C37.9088 22.6724 40.1578 25.3389 43.4469 25.3389C44.9697 25.3389 46.0783 24.4992 46.0783 24.4992V25.0051H49.1743V11.405H46.0783ZM67.3738 16.4496H61.7973C62.449 13.2641 66.7703 13.0813 67.3738 16.4496ZM58.5173 18.205C58.5173 14.1991 61.0873 11.0598 64.6709 11.0598C68.1939 11.0598 71.3621 14.2722 70.5986 19.1574L61.6807 19.155C62.0877 22.2631 65.6124 23.8406 67.7267 20.7324L70.4615 22.3069C68.7037 24.7929 66.6115 25.3515 64.9787 25.3515C61.7432 25.3515 58.5173 22.4171 58.5173 18.205Z" fill="#0C9BFF"/>
<path fill-rule="evenodd" clip-rule="evenodd" d="M66.8942 27.5533H16.6199L20.6243 31.5455L66.8942 27.5533Z" fill="#0C9BFF"/>
<path fill-rule="evenodd" clip-rule="evenodd" d="M104.647 12.2752V24.631C104.647 24.8378 104.815 25.005 105.022 25.005H108.586C108.793 25.005 108.961 24.8378 108.961 24.631V12.2752C108.961 12.0684 108.793 11.9012 108.586 11.9012H105.022C104.815 11.9012 104.647 12.0684 104.647 12.2752ZM105.028 10.0169C105.501 10.4802 106.094 10.7121 106.804 10.7121C107.515 10.7121 108.106 10.4802 108.58 10.0169C109.054 9.5524 109.291 8.98363 109.291 8.30878C109.291 7.63453 109.054 7.06517 108.58 6.60128C108.106 6.1374 107.515 5.90546 106.804 5.90546C106.094 5.90546 105.501 6.1374 105.028 6.60128C104.554 7.06517 104.317 7.63453 104.317 8.30878C104.317 8.98363 104.554 9.5524 105.028 10.0169ZM98.236 24.6482L103.112 9.21893C103.167 9.04392 103.036 8.86532 102.852 8.86532H99.1978C98.9826 8.86532 98.7944 9.00916 98.7379 9.21593L95.7092 20.2934C95.6822 20.3935 95.5397 20.3935 95.512 20.2934L92.4839 9.21593C92.4274 9.00916 92.2392 8.86532 92.0234 8.86532H88.1416C87.9576 8.86532 87.8266 9.04392 87.8819 9.21893L92.7574 24.6482C92.8248 24.8603 93.0219 25.0048 93.245 25.0048H97.7484C97.9714 25.0048 98.1686 24.8603 98.236 24.6482ZM110.995 24.631V7.41758C110.995 7.21141 111.162 7.0442 111.37 7.0442H114.934C115.14 7.0442 115.308 7.21141 115.308 7.41758V16.4435C115.308 16.561 115.461 16.6072 115.527 16.5101L118.425 12.2093C118.554 12.0169 118.772 11.9012 119.005 11.9012H123.251C123.407 11.9012 123.494 12.0792 123.399 12.2021L119.186 17.6584C119.054 17.8286 119.053 18.0659 119.185 18.2374L124.138 24.7048C124.232 24.8276 124.144 25.005 123.989 25.005H119.433C119.201 25.005 118.984 24.893 118.85 24.7054L115.525 20.0467C115.458 19.952 115.308 19.9994 115.308 20.1157V24.631C115.308 24.8378 115.14 25.005 114.934 25.005H111.37C111.162 25.005 110.995 24.8378 110.995 24.631ZM125.358 12.2752V24.631C125.358 24.8378 125.526 25.005 125.734 25.005H129.297C129.504 25.005 129.672 24.8378 129.672 24.631V12.2752C129.672 12.0684 129.504 11.9012 129.297 11.9012H125.734C125.526 11.9012 125.358 12.0684 125.358 12.2752ZM125.739 10.0169C126.212 10.4802 126.805 10.7121 127.515 10.7121C128.226 10.7121 128.818 10.4802 129.291 10.0169C129.765 9.5524 130.002 8.98363 130.002 8.30878C130.002 7.63453 129.765 7.06517 129.291 6.60128C128.818 6.1374 128.226 5.90546 127.515 5.90546C126.805 5.90546 126.212 6.1374 125.739 6.60128C125.265 7.06517 125.028 7.63453 125.028 8.30878C125.028 8.98363 125.265 9.5524 125.739 10.0169Z" fill="#0C9BFF"/>
</g>
<defs>
<clipPath id="clip0_1:45">
<rect width="130" height="32" fill="white"/>
</clipPath>
</defs>
</svg>
