<?xml version="1.0" encoding="utf-8"?>
<!-- Generator: Adobe Illustrator 27.0.0, SVG Export Plug-In . SVG Version: 6.00 Build 0)  -->
<svg version="1.1"
	 id="svg150" xmlns:svg="http://www.w3.org/2000/svg" xmlns:sodipodi="http://sodipodi.sourceforge.net/DTD/sodipodi-0.dtd" xmlns:inkscape="http://www.inkscape.org/namespaces/inkscape"
	 xmlns="http://www.w3.org/2000/svg" xmlns:xlink="http://www.w3.org/1999/xlink" width="300" x="0px" y="0px" viewBox="0 0 390.1 178.1"
	 style="enable-background:new 0 0 390.1 178.1;" xml:space="preserve">
<style type="text/css">
	.st0{fill:#BB2E76;}
	.st1{fill:#05B2B6;}
</style>
<sodipodi:namedview  bordercolor="#999999" borderopacity="1" id="namedview152" inkscape:current-layer="svg150" inkscape:cx="1.5803052" inkscape:cy="6.5273476" inkscape:deskcolor="#d1d1d1" inkscape:pagecheckerboard="0" inkscape:pageopacity="0" inkscape:showpageshadow="0" inkscape:zoom="7.2770753" pagecolor="#ffffff" showgrid="false">
	</sodipodi:namedview>
<g>
	<path id="path3814" d="M278.4,118.4h5.3l-21.2,36.5v23.3h-4.5v-23.3l-21.2-36.5h5.3l11.7,20.5l6.4,11.3l6.4-11.3L278.4,118.4z"/>
	<path id="path3810" d="M217.6,118.4l-23.9,59.7h4.8l7.5-18.7h28.5l7.5,18.7h4.8l-23.9-59.7H217.6z M220.2,122.8l12.7,32.4h-25.2
		L220.2,122.8z"/>
	<path id="path3808" d="M156.5,174h35.8v4.2H152v-59.7h4.5V174z"/>
	<path id="path144" d="M106.3,118.4v59.7h4.5v-24.7h15.3c4.2,0,7.8-0.7,10.8-2.1c3-1.4,5.4-3.4,7-6c1.7-2.6,2.5-5.7,2.5-9.4
		c0-3.6-0.8-6.7-2.5-9.3c-1.7-2.6-4-4.6-7-6c-3-1.4-6.6-2.1-10.8-2.1H106.3z M110.8,122.6h14.8c5.2,0,9.2,1.2,11.9,3.5
		c2.7,2.3,4.1,5.6,4.1,9.8c0,4.2-1.4,7.5-4.1,9.8c-2.7,2.3-6.7,3.5-11.9,3.5h-14.8V122.6z"/>
</g>
<g>
	<path id="path3822" d="M62.5,47.3L98,95H71.2L49,65.3L62.5,47.3z"/>
	<path id="path3820" d="M62.5,47.3L49,29.2L69,2.3l27,0L62.5,47.3z"/>
	<path id="path3816" d="M201.6,0c-9.5,0-17.2,3.8-22.9,10.1V2.3H155v54.1c0,10.3-7.4,18.2-18,18.2c-15.5,0-17.3-13-17.3-18.2V2.3H96
		v54.1c0,24.3,14.6,40.7,36.5,40.7c9.7,0,17.8-4,23.6-10.6V95h22.7V40.8c0-10.4,7.4-18.4,17.8-18.4c15.7,0,17.3,13,17.3,18.4V95
		h23.9V40.8c0-10.4,7.4-18.4,18-18.4c15.5,0,17.3,13,17.3,18.4V95h23.7V48.8c0,27.7,20.9,48.4,46.6,48.4c25.7,0,46.8-20.7,46.8-48.4
		C390.1,21,369.1,0,343.4,0c-25.7,0-46.6,21-46.6,48.7v-7.9c0-24.3-14.4-40.8-39.2-40.8c-11.9,0-21.6,5-28.2,13.1
		C222.9,4.9,213.1,0,201.6,0z M343.4,21.8c12.6,0,22.9,11.2,22.9,27.2c0,15.6-10.3,26.4-22.9,26.4c-12.6,0-22.8-10.8-22.8-26.4
		C320.5,32.9,330.8,21.8,343.4,21.8z"/>
	<path id="path146" class="st0" d="M49,29.2L29,2.3H2l33.6,44.9h26.9L49,29.2z"/>
	<path id="path148" class="st1" d="M62.5,47.3H35.6L0,95h26.8L49,65.3L62.5,47.3L62.5,47.3z"/>
</g>
</svg>
