<svg xmlns="http://www.w3.org/2000/svg" width="512px" height="512px" viewBox="0 0 24 24" fill-rule="evenodd" clip-rule="evenodd" fill="#b93545"><path d="M9.842 10.163c-.228.505-.789.858-1.365.858-.34 0-.648-.127-.883-.36-.234.233-.543.36-.883.36-.577 0-1.138-.353-1.365-.858-.247-.548.583-.924.831-.374.07.155.297.321.524.321.464 0 .438-.651.438-1.065-.428-.184-.73-.601-.73-.971 0-.491.532-.71 1.185-.71.654 0 1.185.219 1.185.71 0 .37-.301.787-.729.971 0 .431-.026 1.067.433 1.067.225 0 .459-.17.528-.323.248-.55 1.079-.175.831.374zm.254-3.701c-.331 0-.601-.27-.601-.601 0-.332.27-.601.601-.601.331 0 .601.269.601.601 0 .331-.27.601-.601.601zm0-2.104c-.829 0-1.501.673-1.501 1.503 0 .829.672 1.503 1.501 1.503.829 0 1.501-.674 1.501-1.503 0-.83-.672-1.503-1.501-1.503zm-5.004 2.104c-.331 0-.601-.27-.601-.601 0-.332.27-.601.601-.601.332 0 .601.269.601.601 0 .331-.269.601-.601.601zm1.501-.601c0-.83-.672-1.503-1.501-1.503-.829 0-1.501.673-1.501 1.503 0 .829.672 1.503 1.501 1.503.829 0 1.501-.674 1.501-1.503zm11.12 17.136c-1.254.007-4.557.004-4.896.004-1.704-.006-1.65-1.981-.222-1.978l2.605.005-.585-.8c-1.085-1.48-.86-4.456.95-5.815.529-.397-.069-1.197-.601-.802-2.002 1.505-2.423 4.451-1.602 6.411l-.757-.001c-.743-.011-1.432.329-1.795.941-.361.608-.367 1.37-.016 1.987l.039.051-2.653-.002c1.344-1.7.996-4.971.911-5.62-.088-.667-1.078-.521-.992.131.214 1.627.145 3.897-.755 4.939-.254.295-.564.475-.938.549h-2.053c-1.316 0-1.181-1.875.002-1.875.529.008.236.008 1.341-.004.595-2.113.371-3.143-.431-5.262-.613-1.619-.835-2.344-.623-3.95l-.312-.162c-1.925-.998-2.329-2.844-2.329-4.217 0-1.899.753-3.881 2.298-6.045.932.857 1.28 1.291 2.087 2.296.161-.041 1.125-.374 2.642 0 .615-.812.997-1.345 2.068-2.301 3.144 4.454 2.184 7.272 2.065 7.803 3.715 1.449 5.052 2.779 7.033 4.581-.883-3.458-1.504-5.231 1.006-7.94.401-.433 1.079.177.663.626-1.672 1.804-1.627 3.277-1.328 4.6.674 2.984 1.46 4.504 1.46 6.747 0 4.936-3.843 5.1-4.282 5.103zm3.798-12.071c-.283-1.255-.2-2.311 1.086-3.697.408-.44.514-1.019.284-1.546-.403-.925-1.695-1.216-2.413-.444-1.882 2.029-2.257 3.774-1.953 5.827-1.254-.957-2.68-1.775-4.197-2.405.355-2.215-.339-5.027-3.064-8.656-1.215 1.063-1.726 1.484-2.635 2.657-.555-.084-1.301-.085-1.846.001-.932-1.148-1.363-1.533-2.619-2.663-1.843 2.443-3.154 4.762-3.154 7.527 0 2.204.909 3.944 2.569 4.939-.108 1.451.332 2.617.76 3.746.468 1.235.911 2.406.594 3.913l-.584-.005c-1.247 0-1.919 1.016-1.919 1.972 0 .259.139 1.888 1.922 1.905 0 0 12.701.006 13.377.002 1.96-.012 5.277-1.31 5.277-6.105 0-2.432-.803-3.96-1.485-6.968z"></path></svg>
