<?xml version="1.0" standalone="no"?>
<!DOCTYPE svg PUBLIC "-//W3C//DTD SVG 20010904//EN"
 "http://www.w3.org/TR/2001/REC-SVG-20010904/DTD/svg10.dtd">
<svg version="1.0" xmlns="http://www.w3.org/2000/svg"
 width="1024px" height="1024px" viewBox="0 0 3830.000000 3830.000000"
 preserveAspectRatio="xMidYMid meet">

<g transform="translate(0.000000,3830.000000) scale(0.100000,-0.100000)"
fill="#FFFFFF" stroke="#FFFFFF">
<path d="M18510 38289 c-2745 -90 -5404 -757 -7855 -1969 -1478 -732 -2898
-1682 -4131 -2766 -591 -519 -1262 -1190 -1775 -1774 -2447 -2788 -4031 -6225
-4554 -9880 -184 -1286 -238 -2622 -160 -3920 227 -3748 1540 -7318 3798
-10325 1213 -1615 2691 -3043 4353 -4205 2900 -2027 6300 -3206 9834 -3410
742 -43 1601 -41 2340 6 2185 136 4330 645 6325 1502 688 295 1452 679 2100
1057 1723 1003 3318 2307 4651 3803 1000 1121 1856 2341 2579 3677 123 227
423 831 540 1085 1418 3093 1979 6489 1639 9920 -423 4270 -2289 8284 -5294
11385 -2775 2864 -6349 4783 -10250 5505 -1344 248 -2765 354 -4140 309z
m1050 -829 c206 -5 461 -14 565 -20 2313 -128 4502 -664 6605 -1616 276 -125
944 -460 1211 -607 2604 -1439 4779 -3430 6424 -5882 1772 -2641 2816 -5677
3044 -8855 36 -491 45 -775 45 -1340 0 -1077 -75 -1985 -250 -3035 -772 -4626
-3332 -8810 -7119 -11635 -4117 -3071 -9306 -4264 -14380 -3305 -431 81 -942
200 -1395 324 -3925 1074 -7387 3437 -9840 6716 -2746 3672 -4002 8206 -3544
12795 89 898 242 1767 464 2650 542 2149 1505 4241 2785 6050 1382 1952 3163
3650 5160 4917 2809 1783 6026 2761 9340 2842 448 11 479 11 885 1z"/>
<path d="M12140 19150 c0 -6510 4 -11130 9 -11128 5 2 4343 2505 9639 5563
7194 4153 9628 5563 9619 5571 -9 9 -19019 10987 -19224 11102 l-43 24 0
-11132z m9258 4820 c4588 -2648 8342 -4817 8342 -4820 0 -4 -16310 -9426
-16702 -9648 l-58 -33 0 9681 0 9681 39 -23 c21 -13 3792 -2190 8379 -4838z"/>
</g>
</svg>
